<svg version="1.1" viewBox="0.0 0.0 960.0 720.0" fill="none" stroke="none" stroke-linecap="square" stroke-miterlimit="10" xmlns:xlink="http://www.w3.org/1999/xlink" xmlns="http://www.w3.org/2000/svg"><clipPath id="p.0"><path d="m0 0l960.0 0l0 720.0l-960.0 0l0 -720.0z" clip-rule="nonzero"/></clipPath><g clip-path="url(#p.0)"><path fill="#000000" fill-opacity="0.0" d="m0 0l960.0 0l0 720.0l-960.0 0z" fill-rule="evenodd"/><path fill="#000000" d="m185.51562 371.90524l0 0c0 -153.7526 133.03137 -278.39368 297.13385 -278.39368l0 0c164.10248 0 297.13385 124.6411 297.13385 278.39368l0 0c0 153.7526 -133.03137 278.3937 -297.13385 278.3937l0 0c-164.10248 0 -297.13385 -124.64111 -297.13385 -278.3937z" fill-rule="evenodd"/><path stroke="#000000" stroke-width="2.4986876640419946" stroke-linejoin="round" stroke-linecap="butt" d="m185.51562 371.90524l0 0c0 -153.7526 133.03137 -278.39368 297.13385 -278.39368l0 0c164.10248 0 297.13385 124.6411 297.13385 278.39368l0 0c0 153.7526 -133.03137 278.3937 -297.13385 278.3937l0 0c-164.10248 0 -297.13385 -124.64111 -297.13385 -278.3937z" fill-rule="evenodd"/><path fill="#1c4587" d="m656.1557 227.88406c-5.9420776 0 -14.565247 0.6630249 -25.869629 1.9890594c-11.2561035 1.3260498 -21.932495 1.9890747 -32.029114 1.9890747l-16.884094 0c-2.7053833 0 -4.492798 1.8943481 -5.3623657 5.6830597c-1.2077026 4.3569946 -2.487915 9.661179 -3.8405762 15.912537c-1.3043823 6.2513733 -2.8502808 12.715851 -4.6376953 19.393433l-79.203186 167.15283c-0.7897949 1.507782 -1.9551697 2.2616577 -3.4960938 2.2616577c-0.24990845 0 -0.50964355 -0.019836426 -0.7792969 -0.05947876c-1.932373 -0.28414917 -3.3333435 -1.3023987 -4.2029114 -3.054657l-68.550964 -167.1528c-2.0772705 -5.8251343 -3.9371948 -11.484528 -5.579712 -16.978134c-1.6425171 -5.540985 -3.212555 -10.93988 -4.7101746 -16.196701c-0.5797119 -2.3205872 -1.7632751 -4.120224 -3.5507202 -5.3989105c-1.7874451 -1.3260345 -3.719818 -1.9890594 -5.797119 -1.9890594c-4.444458 0 -10.0000305 -0.14208984 -16.666718 -0.426239c-6.6667175 -0.33151245 -13.719879 -0.7103729 -21.159515 -1.1366119c-7.439636 -0.42622375 -14.275391 -0.78141785 -20.507294 -1.065567c-6.2319336 -0.28414917 -11.111145 -0.42622375 -14.637756 -0.42622375c-4.1545715 0 -7.5845337 0.28414917 -10.289886 0.8524475c-2.657013 0.5683136 -3.9855042 2.154831 -3.9855042 4.7595673c0 2.0364227 0.9661865 3.859726 2.8985596 5.46994c1.932373 1.6101837 4.5410767 2.6994476 7.826111 3.267746c5.893738 1.1839752 11.207764 2.58107 15.942078 4.1912537c4.7826233 1.5628357 9.541107 4.238617 14.275421 8.027313c3.2850342 2.0364227 5.434784 4.4517365 6.44928 7.2458954c1.0628052 2.7468262 1.5942078 5.7304077 1.5942078 8.950806c0.28985596 2.3205872 0.43478394 4.783264 0.43478394 7.38797c0 2.6047363 0 4.9253235 0 6.9617615c-0.5797119 15.7230835 -1.7632751 33.69574 -3.5507202 53.91797c-1.7874451 20.222198 -3.864746 41.462616 -6.231903 63.721222c-2.367157 22.258636 -5.0483093 44.30417 -8.043518 66.136566c-1.4492798 9.89798 -4.6376953 17.617462 -9.565247 23.158417c-4.879242 5.4936523 -10.893738 9.116577 -18.043549 10.868866c-4.444458 1.18396 -7.9227295 2.296875 -10.434814 3.3387756c-2.512085 0.99453735 -3.7681274 2.5100403 -3.7681274 4.5464478c0 2.0364075 1.1111145 3.4098206 3.3333435 4.1202087c2.222229 0.75775146 5.2657166 1.1365967 9.130463 1.1365967c5.652191 0 10.628082 -0.16577148 14.927582 -0.49725342c4.29953 -0.28411865 8.59906 -0.56829834 12.898621 -0.852478c4.2994995 -0.28411865 9.27536 -0.4262085 14.927582 -0.4262085c5.893738 0 10.483124 0.07104492 13.768158 0.21313477c3.2850342 0.14208984 7.0048523 0.4262085 11.159454 0.852417c4.154602 0.4736328 10.241577 0.7103882 18.260925 0.7103882c3.5265808 0 6.4734497 -0.44989014 8.840607 -1.3497314c2.4154663 -0.852417 3.6231995 -2.1547852 3.6231995 -3.907074c0 -2.3205566 -1.2801819 -4.049164 -3.8405762 -5.185791c-2.512085 -1.18396 -5.9903564 -2.22583 -10.434814 -3.1256714c-9.806793 -2.0364075 -17.318909 -6.0382385 -22.536316 -12.005463c-5.169098 -5.9671936 -7.753662 -13.023682 -7.753662 -21.169373c0 -18.043701 0.3623352 -35.49539 1.0869751 -52.355133c0.7729492 -16.859741 1.9565125 -33.86154 3.5507202 -51.0054c1.6425171 -17.191254 3.5265808 -34.974457 5.6522217 -53.34967c0.28985596 -2.036438 1.2318726 -3.1967163 2.8260803 -3.4808655c0.22918701 -0.039642334 0.45132446 -0.05947876 0.66641235 -0.05947876c1.3263245 0 2.384369 0.75387573 3.1741943 2.2616577c15.410675 36.087402 30.169159 70.6593 44.275513 103.71573c14.106323 33.009064 27.536316 66.51538 40.289978 100.51901c0.5797119 2.036438 2.0531616 3.1256714 4.4203186 3.2677612c0.17892456 0.014038086 0.35360718 0.021057129 0.52404785 0.021057129c2.1304932 0 3.5983276 -1.0962524 4.4035034 -3.2888184l96.15976 -202.4588c1.4975586 -2.652069 2.8985596 -4.049164 4.202881 -4.1912537c0.06994629 -0.0073547363 0.13812256 -0.011016846 0.20446777 -0.011016846c1.2163696 0 1.8245239 1.2349854 1.8245239 3.705017c0.9179077 18.659363 1.8115845 36.34787 2.6811523 53.06552c0.8695679 16.717651 1.5217896 33.67209 1.956543 50.86331c0.48309326 17.14389 0.8695679 35.75592 1.1594238 55.83603c0 9.613831 -1.7874146 16.670319 -5.3623047 21.169373c-3.5266113 4.4990845 -10.04834 7.4826965 -19.565308 8.950806c-4.154602 0.56829834 -7.3430176 1.5865173 -9.565247 3.0546265c-2.222229 1.4681091 -3.333313 3.220398 -3.333313 5.256836c0 2.0364075 1.111084 3.4098206 3.333313 4.1202087c2.222229 0.75775146 4.975891 1.1365967 8.260925 1.1365967c7.6811523 0 14.347839 -0.23675537 20.000061 -0.7103882c5.6521606 -0.4262085 10.990356 -0.7813721 16.014526 -1.0655518c5.07251 -0.28411865 10.579773 -0.4262085 16.52179 -0.4262085c6.5217896 0 12.826111 0.14208984 18.913147 0.4262085c6.086975 0.2841797 12.246399 0.63934326 18.478271 1.0655518c6.2319336 0.4736328 13.043518 0.7103882 20.434875 0.7103882c3.5748901 0 6.401001 -0.44989014 8.4782715 -1.3497314c2.0773315 -0.852417 3.1159668 -2.1547852 3.1159668 -3.907074c0 -2.3205566 -1.111084 -4.049164 -3.333313 -5.185791c-2.22229 -1.18396 -5.4107056 -2.22583 -9.565308 -3.1256714c-10.386475 -2.0364075 -18.405823 -5.4462585 -24.058044 -10.229492c-5.6521606 -4.830597 -8.768127 -11.460846 -9.347839 -19.890686c-0.8695679 -17.42804 -1.9082031 -33.861572 -3.1159668 -49.300507c-1.2077026 -15.438965 -2.1738892 -30.854248 -2.8985596 -46.24585c-0.7246094 -15.438965 -1.5458984 -31.659332 -2.463745 -48.661133c-0.8695679 -17.049164 -1.3043823 -35.89798 -1.3043823 -56.546387c-0.28985596 -5.540985 0.8937378 -9.969025 3.5507202 -13.284149c2.6570435 -3.3624725 6.376892 -6.06192 11.159485 -8.098358c3.2367554 -1.4681244 6.7874756 -2.9125671 10.652222 -4.3333282c3.864746 -1.4681244 7.439636 -2.7941742 10.72467 -3.9781342c3.8164673 -1.4681244 6.618408 -2.7704926 8.405823 -3.9071045c1.7874756 -1.18396 2.6811523 -2.9362335 2.6811523 -5.2568207c0 -2.0364227 -1.1835327 -3.4098358 -3.5507202 -4.1202087c-2.3671875 -0.75775146 -4.5894165 -1.1366119 -6.666687 -1.1366119z" fill-rule="evenodd"/><path stroke="#ffffff" stroke-width="9.99737532808399" stroke-linejoin="round" stroke-linecap="butt" d="m656.1557 227.88406c-5.9420776 0 -14.565247 0.6630249 -25.869629 1.9890594c-11.2561035 1.3260498 -21.932495 1.9890747 -32.029114 1.9890747l-16.884094 0c-2.7053833 0 -4.492798 1.8943481 -5.3623657 5.6830597c-1.2077026 4.3569946 -2.487915 9.661179 -3.8405762 15.912537c-1.3043823 6.2513733 -2.8502808 12.715851 -4.6376953 19.393433l-79.203186 167.15283c-0.7897949 1.507782 -1.9551697 2.2616577 -3.4960938 2.2616577c-0.24990845 0 -0.50964355 -0.019836426 -0.7792969 -0.05947876c-1.932373 -0.28414917 -3.3333435 -1.3023987 -4.2029114 -3.054657l-68.550964 -167.1528c-2.0772705 -5.8251343 -3.9371948 -11.484528 -5.579712 -16.978134c-1.6425171 -5.540985 -3.212555 -10.93988 -4.7101746 -16.196701c-0.5797119 -2.3205872 -1.7632751 -4.120224 -3.5507202 -5.3989105c-1.7874451 -1.3260345 -3.719818 -1.9890594 -5.797119 -1.9890594c-4.444458 0 -10.0000305 -0.14208984 -16.666718 -0.426239c-6.6667175 -0.33151245 -13.719879 -0.7103729 -21.159515 -1.1366119c-7.439636 -0.42622375 -14.275391 -0.78141785 -20.507294 -1.065567c-6.2319336 -0.28414917 -11.111145 -0.42622375 -14.637756 -0.42622375c-4.1545715 0 -7.5845337 0.28414917 -10.289886 0.8524475c-2.657013 0.5683136 -3.9855042 2.154831 -3.9855042 4.7595673c0 2.0364227 0.9661865 3.859726 2.8985596 5.46994c1.932373 1.6101837 4.5410767 2.6994476 7.826111 3.267746c5.893738 1.1839752 11.207764 2.58107 15.942078 4.1912537c4.7826233 1.5628357 9.541107 4.238617 14.275421 8.027313c3.2850342 2.0364227 5.434784 4.4517365 6.44928 7.2458954c1.0628052 2.7468262 1.5942078 5.7304077 1.5942078 8.950806c0.28985596 2.3205872 0.43478394 4.783264 0.43478394 7.38797c0 2.6047363 0 4.9253235 0 6.9617615c-0.5797119 15.7230835 -1.7632751 33.69574 -3.5507202 53.91797c-1.7874451 20.222198 -3.864746 41.462616 -6.231903 63.721222c-2.367157 22.258636 -5.0483093 44.30417 -8.043518 66.136566c-1.4492798 9.89798 -4.6376953 17.617462 -9.565247 23.158417c-4.879242 5.4936523 -10.893738 9.116577 -18.043549 10.868866c-4.444458 1.18396 -7.9227295 2.296875 -10.434814 3.3387756c-2.512085 0.99453735 -3.7681274 2.5100403 -3.7681274 4.5464478c0 2.0364075 1.1111145 3.4098206 3.3333435 4.1202087c2.222229 0.75775146 5.2657166 1.1365967 9.130463 1.1365967c5.652191 0 10.628082 -0.16577148 14.927582 -0.49725342c4.29953 -0.28411865 8.59906 -0.56829834 12.898621 -0.852478c4.2994995 -0.28411865 9.27536 -0.4262085 14.927582 -0.4262085c5.893738 0 10.483124 0.07104492 13.768158 0.21313477c3.2850342 0.14208984 7.0048523 0.4262085 11.159454 0.852417c4.154602 0.4736328 10.241577 0.7103882 18.260925 0.7103882c3.5265808 0 6.4734497 -0.44989014 8.840607 -1.3497314c2.4154663 -0.852417 3.6231995 -2.1547852 3.6231995 -3.907074c0 -2.3205566 -1.2801819 -4.049164 -3.8405762 -5.185791c-2.512085 -1.18396 -5.9903564 -2.22583 -10.434814 -3.1256714c-9.806793 -2.0364075 -17.318909 -6.0382385 -22.536316 -12.005463c-5.169098 -5.9671936 -7.753662 -13.023682 -7.753662 -21.169373c0 -18.043701 0.3623352 -35.49539 1.0869751 -52.355133c0.7729492 -16.859741 1.9565125 -33.86154 3.5507202 -51.0054c1.6425171 -17.191254 3.5265808 -34.974457 5.6522217 -53.34967c0.28985596 -2.036438 1.2318726 -3.1967163 2.8260803 -3.4808655c0.22918701 -0.039642334 0.45132446 -0.05947876 0.66641235 -0.05947876c1.3263245 0 2.384369 0.75387573 3.1741943 2.2616577c15.410675 36.087402 30.169159 70.6593 44.275513 103.71573c14.106323 33.009064 27.536316 66.51538 40.289978 100.51901c0.5797119 2.036438 2.0531616 3.1256714 4.4203186 3.2677612c0.17892456 0.014038086 0.35360718 0.021057129 0.52404785 0.021057129c2.1304932 0 3.5983276 -1.0962524 4.4035034 -3.2888184l96.15976 -202.4588c1.4975586 -2.652069 2.8985596 -4.049164 4.202881 -4.1912537c0.06994629 -0.0073547363 0.13812256 -0.011016846 0.20446777 -0.011016846c1.2163696 0 1.8245239 1.2349854 1.8245239 3.705017c0.9179077 18.659363 1.8115845 36.34787 2.6811523 53.06552c0.8695679 16.717651 1.5217896 33.67209 1.956543 50.86331c0.48309326 17.14389 0.8695679 35.75592 1.1594238 55.83603c0 9.613831 -1.7874146 16.670319 -5.3623047 21.169373c-3.5266113 4.4990845 -10.04834 7.4826965 -19.565308 8.950806c-4.154602 0.56829834 -7.3430176 1.5865173 -9.565247 3.0546265c-2.222229 1.4681091 -3.333313 3.220398 -3.333313 5.256836c0 2.0364075 1.111084 3.4098206 3.333313 4.1202087c2.222229 0.75775146 4.975891 1.1365967 8.260925 1.1365967c7.6811523 0 14.347839 -0.23675537 20.000061 -0.7103882c5.6521606 -0.4262085 10.990356 -0.7813721 16.014526 -1.0655518c5.07251 -0.28411865 10.579773 -0.4262085 16.52179 -0.4262085c6.5217896 0 12.826111 0.14208984 18.913147 0.4262085c6.086975 0.2841797 12.246399 0.63934326 18.478271 1.0655518c6.2319336 0.4736328 13.043518 0.7103882 20.434875 0.7103882c3.5748901 0 6.401001 -0.44989014 8.4782715 -1.3497314c2.0773315 -0.852417 3.1159668 -2.1547852 3.1159668 -3.907074c0 -2.3205566 -1.111084 -4.049164 -3.333313 -5.185791c-2.22229 -1.18396 -5.4107056 -2.22583 -9.565308 -3.1256714c-10.386475 -2.0364075 -18.405823 -5.4462585 -24.058044 -10.229492c-5.6521606 -4.830597 -8.768127 -11.460846 -9.347839 -19.890686c-0.8695679 -17.42804 -1.9082031 -33.861572 -3.1159668 -49.300507c-1.2077026 -15.438965 -2.1738892 -30.854248 -2.8985596 -46.24585c-0.7246094 -15.438965 -1.5458984 -31.659332 -2.463745 -48.661133c-0.8695679 -17.049164 -1.3043823 -35.89798 -1.3043823 -56.546387c-0.28985596 -5.540985 0.8937378 -9.969025 3.5507202 -13.284149c2.6570435 -3.3624725 6.376892 -6.06192 11.159485 -8.098358c3.2367554 -1.4681244 6.7874756 -2.9125671 10.652222 -4.3333282c3.864746 -1.4681244 7.439636 -2.7941742 10.72467 -3.9781342c3.8164673 -1.4681244 6.618408 -2.7704926 8.405823 -3.9071045c1.7874756 -1.18396 2.6811523 -2.9362335 2.6811523 -5.2568207c0 -2.0364227 -1.1835327 -3.4098358 -3.5507202 -4.1202087c-2.3671875 -0.75775146 -4.5894165 -1.1366119 -6.666687 -1.1366119z" fill-rule="evenodd"/><g filter="url(#shadowFilter-p.1)"><use xlink:href="#p.1" transform="matrix(1.0 0.0 0.0 1.0 0.0 2.498767454068212)"/></g><defs><filter id="shadowFilter-p.1" filterUnits="userSpaceOnUse"><feGaussianBlur in="SourceAlpha" stdDeviation="6.2469187" result="blur"/><feComponentTransfer in="blur" color-interpolation-filters="sRGB"><feFuncR type="linear" slope="0" intercept="0.0"/><feFuncG type="linear" slope="0" intercept="0.0"/><feFuncB type="linear" slope="0" intercept="0.0"/><feFuncA type="linear" slope="0.4" intercept="0"/></feComponentTransfer></filter></defs><g id="p.1"><path fill="#085630" d="m484.0464 36.027203l0 0c124.70514 1.4768982 239.2456 66.523254 300.93042 170.89531c61.684753 104.37207 61.260254 232.41254 -1.1152344 336.39877l-57.06952 -31.740997c50.39923 -84.02017 50.58789 -187.57849 0.49591064 -272.14124c-50.09204 -84.56276 -142.96509 -137.46936 -244.06143 -139.03348z" fill-rule="evenodd"/></g><g filter="url(#shadowFilter-p.2)"><use xlink:href="#p.2" transform="matrix(1.0 0.0 0.0 1.0 0.0 2.498767454068212)"/></g><defs><filter id="shadowFilter-p.2" filterUnits="userSpaceOnUse"><feGaussianBlur in="SourceAlpha" stdDeviation="6.2469187" result="blur"/><feComponentTransfer in="blur" color-interpolation-filters="sRGB"><feFuncR type="linear" slope="0" intercept="0.0"/><feFuncG type="linear" slope="0" intercept="0.0"/><feFuncB type="linear" slope="0" intercept="0.0"/><feFuncA type="linear" slope="0.4" intercept="0"/></feComponentTransfer></filter></defs><g id="p.2"><path fill="#65f0ac" d="m482.5976 36.009136l0 0c-123.52597 -0.79265976 -238.40428 60.96098 -302.52942 162.6268c-64.125145 101.66585 -68.06721 228.29338 -10.381332 333.47083l57.175644 -29.076385c-46.78557 -85.37067 -43.413635 -188.2395 8.882172 -270.97144c52.29579 -82.73192 145.84172 -133.18704 246.4135 -132.90611z" fill-rule="evenodd"/></g><path fill="#65f0ac" d="m546.4447 66.83758l-66.99213 64.503944l0 -129.00787z" fill-rule="evenodd"/><g filter="url(#shadowFilter-p.3)"><use xlink:href="#p.3" transform="matrix(1.0 0.0 0.0 1.0 0.0 2.498767454068212)"/></g><defs><filter id="shadowFilter-p.3" filterUnits="userSpaceOnUse"><feGaussianBlur in="SourceAlpha" stdDeviation="6.2469187" result="blur"/><feComponentTransfer in="blur" color-interpolation-filters="sRGB"><feFuncR type="linear" slope="0" intercept="0.0"/><feFuncG type="linear" slope="0" intercept="0.0"/><feFuncB type="linear" slope="0" intercept="0.0"/><feFuncA type="linear" slope="0.4" intercept="0"/></feComponentTransfer></filter></defs><g id="p.3"><path fill="#0e9453" d="m173.10349 538.07086c60.60428 104.855896 174.39566 170.92249 298.99158 173.59265c124.59592 2.670227 241.32053 -58.456177 306.6987 -160.61212l-55.22632 -32.76825l0 0c-53.03485 82.822266 -147.8642 132.29877 -249.2315 130.03473c-101.36734 -2.2640991 -194.11105 -55.930054 -243.7501 -141.04556z" fill-rule="evenodd"/></g><path fill="#085630" d="m733.8621 567.6056l-24.062988 -75.08658l102.078735 51.93698z" fill-rule="evenodd"/><path fill="#0e9453" d="m168.45967 467.81424l91.244095 25.228333l-117.41731 62.614166z" fill-rule="evenodd"/></g></svg>